<?xml version="1.0" encoding="UTF-8" standalone="no"?>
<!-- Created with Inkscape (http://www.inkscape.org/) -->

<svg
   width="4.3818035in"
   height="1.3483115in"
   viewBox="0 0 111.29781 34.24711"
   version="1.1"
   id="svg5"
   inkscape:version="1.1.1 (c3084ef, 2021-09-22)"
   sodipodi:docname="tlc-logo-new.svg"
   xmlns:inkscape="http://www.inkscape.org/namespaces/inkscape"
   xmlns:sodipodi="http://sodipodi.sourceforge.net/DTD/sodipodi-0.dtd"
   xmlns="http://www.w3.org/2000/svg"
   xmlns:svg="http://www.w3.org/2000/svg">
  <g
     id="g66855"
     transform="matrix(0.2582794,0,0,0.2582794,-60.955981,-2.6463459)"
     style="display:inline"
     inkscape:label="logo">
    <g
       id="g64151"
       transform="translate(59.324374,-24.415985)"
       style="display:inline">
      <g
         inkscape:label="Logo"
         id="layer1"
         style="display:inline"
         transform="translate(122.7922,43.871277)">
        <g
           id="g1817"
           transform="matrix(0.83316342,0,0,0.83316342,24.861685,-36.643939)">
          <g
             id="g34"
             style="display:inline"
             transform="translate(-761.55264,-277.28327)">
            <g
               transform="matrix(0.26189171,0,0,0.26189171,768.8945,293.79804)"
               id="g3244"
               style="display:inline">
              <path
                 d="m 419.90021,202.36182 a 114.68439,114.68439 0 1 1 -229.36878,0 114.68439,114.68439 0 1 1 229.36878,0 z"
                 transform="matrix(2.6494025,0,0,2.6494025,-399.78607,-169.6196)"
                 id="path3819"
                 style="color:#000000;display:inline;overflow:visible;visibility:visible;fill:#61afdf;fill-opacity:1;fill-rule:nonzero;stroke:none;stroke-width:5.81;marker:none;enable-background:accumulate" />
              <path
                 d="m 249.50716,494.99972 c -2.85324,-0.37683 -9.20056,-1.5993 -10.58019,-2.03771 -8.12566,-2.58222 -9.1461,-2.96885 -13.70225,-5.1921 -5.84825,-2.85377 -10.60472,-5.72818 -13.70221,-8.28047 -4.26534,-3.51456 -4.78249,-4.00519 -9.53954,-9.05016 -2.58963,-2.74636 -8.15196,-11.7502 -8.15196,-13.19568 0,-0.12608 -0.22416,-0.72114 -0.49813,-1.32233 -0.74288,-1.63015 -1.84929,-5.65056 -2.25791,-8.20439 -1.05232,-6.57704 0.22183,-22.47574 2.93293,-36.59715 0.29304,-1.52634 0.75793,-4.07588 1.03309,-5.66569 0.27517,-1.58984 0.65659,-3.38504 0.84751,-3.98927 0.19095,-0.60429 0.89169,-3.67434 1.5572,-6.82241 1.07028,-5.06256 1.84975,-8.4496 3.51257,-15.26324 0.81019,-3.3198 3.20243,-12.56551 3.9044,-15.08985 0.37137,-1.3355 1.02209,-3.67703 1.44601,-5.20332 0.42393,-1.52634 1.01183,-3.63374 1.30652,-4.68308 0.29462,-1.04932 0.88551,-3.15671 1.31301,-4.68305 1.01399,-3.62037 2.83172,-9.68991 3.42835,-11.44744 0.25907,-0.76314 0.97774,-3.18272 1.59702,-5.37682 0.61931,-2.19408 1.25241,-4.30144 1.40689,-4.68305 0.15447,-0.38156 0.7579,-2.17672 1.34092,-3.98924 0.583,-1.8125 2.30998,-7.07863 3.83773,-11.7025 1.52774,-4.62387 2.77769,-8.72153 2.77769,-9.10592 0,-0.683 -0.20889,-0.69888 -9.19265,-0.69888 -7.12463,0 -9.19185,-0.0976 -9.18923,-0.43362 0.79381,-1.50102 3.706,-6.16111 5.57627,-9.23118 3.60826,-5.92299 6.83713,-12.29566 14.29073,-12.32288 7.55474,-0.0276 7.10459,-0.9231 8.13619,-3.68236 1.69877,-4.581 6.13239,-15.6608 9.30931,-23.2642 1.79878,-4.30512 2.07526,-5.53652 3.27047,-8.23867 2.66533,-6.02583 5.67048,-11.89785 8.68694,-17.75579 1.03053,-2.0013 2.12785,-4.06765 3.21413,-5.9392 2.80899,-5.81918 7.18497,-7.87535 13.26101,-6.23102 2.37522,0.64279 7.45623,2.8732 10.9147,4.84357 1.81453,1.07854 3.27355,2.24735 4.85148,3.4509 0.8641,0.65908 1.64131,1.36567 2.52498,2.06251 1.76855,1.39464 6.70356,6.3622 8.54766,8.60407 1.68304,2.04606 2.85303,4.73844 2.62652,6.04419 -0.23684,1.36518 -1.73742,6.21719 -2.41385,7.80505 -0.24382,0.57238 -0.78655,2.05535 -1.2061,3.29549 -0.41948,1.24013 -0.97407,2.72308 -1.23234,3.29545 -0.25831,0.57238 -0.71186,1.78031 -1.00789,2.68428 -0.29601,0.90401 -0.69563,1.91867 -0.88803,2.25482 -0.19244,0.33614 -0.56901,1.23558 -0.83686,1.99877 -1.55765,4.43805 -2.89574,8.07048 -3.08682,8.37967 -0.12068,0.19516 -0.76136,1.82378 -1.42387,3.61918 -5.56579,13.39795 -2.07577,4.83866 -3.56554,8.69024 -0.20682,0.26519 0,0.4709 0.63602,0.63036 0.51867,0.13017 9.22552,0.20671 19.34854,0.17007 l 18.40556,-0.0666 -0.0538,0.82381 c -0.13784,2.11037 -7.2146,15.48295 -10.13753,17.5679 -1.07515,0.76694 -1.18973,0.77283 -18.3712,0.94521 l -17.28934,0.17342 -1.69864,4.68306 c -0.93425,2.57567 -1.92086,5.15133 -2.19244,5.72371 -0.27156,0.57238 -0.5764,1.35286 -0.6774,1.73446 -0.23504,0.88787 -2.00051,5.87756 -3.19125,9.0192 -0.50623,1.33554 -1.05061,2.89654 -1.20979,3.46891 -0.15917,0.57238 -1.01613,3.07002 -1.90439,5.55029 -0.88827,2.48029 -1.73771,4.97791 -1.88768,5.55028 -0.14992,0.57235 -0.58749,1.89921 -0.97231,2.94858 -0.38485,1.04933 -1.74344,5.18604 -3.01914,9.19265 -1.27568,4.00661 -2.52627,7.90912 -2.77907,8.6723 -0.25278,0.76314 -0.72447,2.32415 -1.04811,3.4689 -0.32368,1.14477 -0.72606,2.47159 -0.89418,2.94858 -0.16805,0.47697 -0.69408,2.27216 -1.16888,3.98924 -0.47479,1.71713 -1.50327,5.38552 -2.28552,8.15201 -1.78787,6.32318 -1.39663,4.80959 -3.58645,13.87566 -1.81089,7.49747 -2.21836,9.33333 -3.00257,13.52879 -0.19614,1.04936 -0.58404,3.07865 -0.86201,4.50959 -2.52473,12.99589 -3.87226,29.39446 -2.96258,36.05129 0.84541,6.18654 3.87066,12.13547 8.51831,16.75091 1.59175,1.5807 3.6457,3.26425 4.5643,3.74124 0.91864,0.47697 1.86657,1.04961 2.10651,1.27257 0.67436,0.62655 6.61693,2.79831 8.94216,3.26805 2.88354,0.58248 9.8776,0.49702 12.83499,-0.15688 4.16302,-0.92041 9.13003,-2.96178 13.5288,-5.56007 1.33902,-0.79101 4.85828,-3.10226 5.02993,-3.30345 0.0955,-0.11182 1.18812,-0.96712 2.42826,-1.90071 2.54978,-1.91947 3.14873,-2.45589 8.58559,-7.6885 2.14638,-2.0658 3.9025,-3.86398 3.9025,-3.99593 0,-0.13192 0.75388,-0.99948 1.67527,-1.92783 1.65487,-1.66753 4.43555,-4.9662 5.78291,-6.86023 0.3816,-0.53641 0.86032,-1.15314 1.06386,-1.37043 0.20354,-0.21738 1.43823,-1.87818 2.74382,-3.69068 1.30553,-1.81249 2.46588,-3.37353 2.57852,-3.46889 0.11263,-0.0954 0.2342,-3.60772 0.27017,-7.80513 0.036,-4.19737 0.24177,-9.66093 0.45741,-12.1412 0.67258,-7.73668 2.11227,-21.09551 2.43004,-22.54797 0.16699,-0.76317 0.62562,-3.49494 1.01932,-6.07062 0.89629,-5.86448 1.4871,-9.11669 2.61524,-14.396 0.48922,-2.28952 1.11295,-5.33347 1.38609,-6.7644 0.56137,-2.94103 2.74442,-11.96442 4.15434,-17.17119 0.51668,-1.90791 1.08869,-4.09331 1.27126,-4.85647 0.18251,-0.7632 0.88434,-3.2608 1.55964,-5.55028 0.67526,-2.28949 1.61812,-5.48957 2.09523,-7.11128 1.18414,-4.02492 2.21302,-7.31881 2.54636,-8.15197 0.15267,-0.38159 1.08655,-3.19141 2.0753,-6.24407 2.381,-7.35118 7.76582,-22.18604 9.19184,-25.32311 0.50441,-1.10963 1.40496,-3.52666 1.91896,-5.15029 0.17192,-0.54316 0.46359,-1.16946 0.64809,-1.39177 0.18451,-0.22233 0.68153,-1.33892 1.10453,-2.48134 0.42303,-1.14245 1.28299,-3.19808 1.91113,-4.56809 0.62811,-1.37004 1.42308,-3.28229 1.76656,-4.24944 0.34352,-0.96716 0.74402,-1.75848 0.89003,-1.75848 0.14601,0 0.2655,-0.16219 0.2655,-0.36041 0,-0.91095 9.57455,-20.68831 13.00851,-26.87061 0.52989,-0.95396 1.44374,-2.67107 2.0308,-3.81583 0.58705,-1.14473 1.18981,-2.13338 1.33941,-2.19698 0.14965,-0.0635 0.27356,-0.29773 0.27538,-0.52034 0,-0.22259 0.62619,-1.38661 1.38757,-2.58672 0.76137,-1.20011 1.38427,-2.23952 1.38427,-2.30982 0,-0.26185 6.065,-10.18868 8.0255,-13.13567 1.11889,-1.68192 2.03439,-3.19616 2.03439,-3.36494 0,-0.16883 0.20043,-0.43177 0.44545,-0.58435 0.24495,-0.15257 0.98135,-1.13597 1.63631,-2.18531 0.65503,-1.04934 1.28443,-1.98597 1.39863,-2.08136 0.11423,-0.0954 0.73732,-0.95394 1.38463,-1.9079 0.64729,-0.95395 1.30261,-1.89058 1.45629,-2.08135 0.15369,-0.1908 1.39505,-1.82986 2.75857,-3.64237 1.36354,-1.8125 2.57514,-3.37352 2.69249,-3.46891 0.11736,-0.0955 0.75338,-0.87592 1.41351,-1.73447 0.66005,-0.85856 1.35847,-1.72909 1.55203,-1.9345 0.19354,-0.20541 1.28847,-1.44816 2.43323,-2.76166 7.01061,-8.04406 12.45617,-13.29048 19.2525,-18.54852 1.24018,-0.95944 2.44663,-1.90069 2.68101,-2.09166 0.66243,-0.53965 6.67789,-4.28861 8.41954,-5.24729 5.23157,-2.87959 12.21872,-5.19626 18.18884,-6.03074 4.73068,-0.66121 8.34099,-0.45834 12.85411,0.72225 2.50012,0.65401 9.72135,4.08956 10.58409,5.03543 0.0955,0.10448 0.71984,0.56192 1.3876,1.01628 2.30036,1.56522 5.45714,4.67468 8.925,8.79115 0.73245,0.86944 4.2569,6.38776 4.2569,6.66514 0,0.0716 0.45403,1.11305 1.00897,2.31404 1.57835,3.4157 2.45993,7.33344 2.45993,10.93183 0,9.76676 -4.98703,26.24704 -13.51839,44.67321 -1.53465,3.31458 -8.84852,18.02739 -9.39814,18.90562 -0.1791,0.28618 -0.48128,0.9106 -0.67151,1.38757 -0.19024,0.47698 -0.50071,1.10138 -0.69002,1.38758 -0.53669,0.81149 -5.55465,9.79049 -5.55465,9.93935 0,0.073 -0.7432,1.33973 -1.65149,2.81501 -0.90832,1.47528 -2.03977,3.42381 -2.51439,4.33006 -0.47458,0.90625 -0.98021,1.64773 -1.12365,1.64773 -0.1434,0 -0.26075,0.1609 -0.26075,0.35757 0,0.19664 -1.7171,3.1439 -3.8158,6.54944 -2.09872,3.40554 -3.81581,6.35365 -3.81581,6.55137 0,0.19774 -0.13616,0.41153 -0.30258,0.47513 -0.25237,0.0965 -4.68534,6.64102 -5.24756,7.74726 -0.23351,0.45944 -2.82376,4.40423 -3.18616,4.85241 -0.15613,0.19304 -1.1652,1.67782 -2.2424,3.29956 -1.07727,1.6217 -2.79417,4.15012 -3.81542,5.61865 -1.02118,1.46855 -1.85672,2.82144 -1.85672,3.0064 0,0.18498 -0.12103,0.38835 -0.26899,0.45194 -0.14797,0.0635 -1.74699,2.14496 -3.55344,4.62522 -2.92371,4.01432 -9.06756,12.30381 -10.16204,13.71103 -0.22634,0.29102 -1.42048,1.85203 -2.65367,3.46892 -3.01628,3.95489 -8.73466,11.09616 -11.09851,13.86017 -1.05744,1.23643 -2.04256,2.40719 -2.18919,2.60167 -0.83589,1.10874 -4.64804,5.50264 -7.36504,8.48889 -0.95396,1.0485 -2.42808,2.69096 -3.27584,3.64997 -2.87776,3.2554 -15.79829,15.95526 -18.50225,18.18624 -1.47986,1.22102 -2.76234,2.5479 -2.84989,2.94858 -0.99711,4.56253 -2.85794,18.03227 -3.50325,25.35782 -0.70989,8.05878 -0.52328,21.45781 0.35987,25.84349 2.10368,10.4468 7.16168,19.44528 13.80024,24.55144 3.76513,2.8961 9.10212,5.25765 14.28208,6.31977 2.80702,0.57552 10.3207,0.60218 12.87094,0.0456 3.20043,-0.69841 9.74063,-2.92792 10.23329,-3.48845 0.0955,-0.10849 0.93165,-0.57913 1.85837,-1.04577 1.49249,-0.75155 6.26927,-3.73223 7.2966,-4.55304 0.21152,-0.16898 1.63339,-1.28039 3.15972,-2.46968 2.87467,-2.24001 12.3531,-11.56679 15.08982,-14.84838 0.85854,-1.02954 2.53332,-3.12918 3.72178,-4.66597 1.18844,-1.53677 2.28538,-2.95021 2.43765,-3.14102 0.15225,-0.19077 0.65537,-0.89322 1.11796,-1.56102 0.46259,-0.66773 0.93492,-1.29213 1.04957,-1.38752 0.11458,-0.0955 0.86368,-1.11683 1.66447,-2.26989 l 1.45597,-2.09645 v -4.12959 c 0,-2.27134 0.15426,-5.38656 0.34276,-6.92278 1.15198,-9.38871 1.53719,-12.1383 2.0924,-14.93437 0.34096,-1.71714 0.77539,-3.59036 0.96545,-4.16273 0.19007,-0.57238 0.76266,-2.60167 1.27246,-4.50958 0.50974,-1.90789 1.14981,-3.96083 1.42235,-4.56203 0.27255,-0.60122 0.49558,-1.23523 0.49558,-1.40893 0,-0.35562 2.57198,-6.81058 3.97897,-9.9861 1.04543,-2.35958 2.55358,-5.35135 4.10919,-8.15193 0.5829,-1.04936 1.29084,-2.37622 1.57319,-2.94857 0.28237,-0.57239 1.26806,-2.19408 2.19043,-3.60376 0.9223,-1.40966 1.67697,-2.63031 1.67697,-2.71265 0,-0.19033 2.13707,-3.33842 2.42355,-3.57003 0.11796,-0.0955 1.17683,-1.50034 2.35294,-3.12202 1.17616,-1.62174 2.52351,-3.39015 2.99416,-3.9298 0.47067,-0.53962 1.3734,-1.62341 2.00609,-2.40841 3.72076,-4.61625 12.59299,-13.40437 16.76051,-16.60163 0.57239,-0.43911 1.11874,-0.895 1.21415,-1.01308 0.41378,-0.5122 7.01861,-5.43849 8.34835,-6.22672 0.80464,-0.47698 1.636,-1.02884 1.84743,-1.22636 0.60763,-0.56773 4.00394,-2.58946 4.34999,-2.58946 0.17201,0 0.36475,-0.1403 0.42841,-0.3118 0.16403,-0.44227 8.13275,-4.51181 12.25685,-6.25938 4.98354,-2.11178 5.39077,-2.25686 10.73912,-3.82526 22.48369,-6.59338 44.89903,-1.88855 58.89308,12.36126 4.22113,4.2983 7.58899,9.24146 9.30542,13.65806 0.40513,1.04233 0.85594,2.12998 1.00189,2.4169 0.86179,1.69483 2.08196,8.56785 2.09357,11.79308 0.008,2.27934 -1.31419,8.64537 -2.07413,9.98476 -0.18581,0.32742 -0.73856,1.53191 -1.22846,2.67669 -0.79963,1.86844 -3.78369,7.02045 -4.31982,7.45818 -0.11684,0.0955 -0.66496,0.79785 -1.21793,1.561 -3.35397,4.62848 -9.16463,9.11473 -13.66579,10.55089 -2.35041,0.74992 -6.68855,0.24434 -10.78861,-1.25727 -3.04388,-1.11488 -7.2092,-4.21744 -9.55189,-7.11484 -0.73892,-0.91388 -1.94594,-3.8749 -2.3017,-5.64645 -0.51956,-2.58701 0.29494,-6.43327 1.88617,-8.9069 1.10471,-1.71731 5.5344,-6.53106 6.01004,-6.53106 0.40439,0 6.60877,-5.50645 7.85456,-6.97113 0.69019,-0.81136 1.76743,-2.50171 2.39401,-3.75628 1.02886,-2.06021 1.14048,-2.5833 1.15306,-5.40306 0.0122,-2.76324 -0.10023,-3.34716 -0.97872,-5.08101 -1.05982,-2.09158 -3.43896,-4.83548 -5.42488,-6.25662 -5.36886,-3.84202 -14.38422,-4.62607 -22.548,-1.96094 -4.07681,1.33093 -11.45165,5.36404 -12.79072,6.99499 -0.26186,0.31891 -0.60576,0.57985 -0.76425,0.57985 -0.41346,0 -3.4758,2.79408 -7.03074,6.41499 -2.89977,2.9535 -6.50588,7.45718 -8.75139,10.92965 -0.55517,0.85853 -1.09601,1.63902 -1.2018,1.73442 -0.10574,0.0955 -1.067,1.57836 -2.13611,3.2955 -4.44814,7.74362 -8.1443,15.70639 -10.82799,23.31043 -1.32964,3.73875 -2.83145,8.71563 -3.32889,11.03189 -0.16392,0.76316 -0.69289,3.05901 -1.17547,5.10193 -0.81906,3.4674 -1.55616,7.95505 -2.32427,14.15059 -0.44486,3.58827 -0.47333,18.86473 -0.0389,20.98695 0.19515,0.95392 0.61354,3.1289 0.92967,4.8332 1.83612,9.89755 7.38962,20.03044 14.27188,26.04021 1.09247,0.95395 2.25598,1.99184 2.5856,2.3064 1.14642,1.09403 6.40826,4.38147 8.77601,5.48295 5.16592,2.4032 11.20294,4.16599 16.76129,4.89417 3.67417,0.48137 16.92829,0.24323 19.70787,-0.35403 0.95396,-0.20501 2.59303,-0.54022 3.64238,-0.74496 2.34376,-0.45733 8.35127,-2.27673 10.23332,-3.09927 0.76314,-0.3335 2.24613,-0.97138 3.29549,-1.41745 1.04935,-0.44605 3.24986,-1.57506 4.81951,-2.46516 1.85151,-1.04991 3.80995,-2.29726 5.41382,-3.38583 0.95393,-0.64405 1.81248,-1.26084 1.90789,-1.37064 0.0955,-0.10975 0.79784,-0.6091 1.56101,-1.10968 2.2353,-1.46613 3.86125,-2.92418 10.92709,-9.79883 7.28414,-7.08707 8.79117,-7.93409 11.84574,-6.65783 1.47563,0.61656 2.16573,1.37898 2.88642,3.18912 0.55631,1.39719 0.54842,1.46744 -0.38743,3.46897 -1.75897,3.76169 -5.33418,8.16504 -11.86859,14.61773 -2.36681,2.33715 -4.39948,4.25384 -4.51705,4.25923 -0.11772,0.005 -0.96215,0.70514 -1.87677,1.5549 -0.91458,0.84976 -2.24144,1.97709 -2.94856,2.50517 -0.70713,0.52803 -1.50578,1.16893 -1.77475,1.42426 -0.26892,0.25535 -1.12751,0.86406 -1.90789,1.35273 -0.78041,0.48864 -1.49693,0.98687 -1.59234,1.10719 -0.74539,0.94012 -11.86772,7.67565 -15.61013,9.45332 -3.87947,1.8428 -6.78799,3.12324 -8.65881,3.812 -14.6659,5.39931 -24.55343,7.11421 -39.03886,6.77113 -8.20296,-0.19425 -14.17826,-0.79666 -19.94631,-2.01093 -7.33875,-1.47684 -14.23259,-3.35841 -20.68581,-6.11014 -1.33098,-0.57795 -2.62877,-1.23062 -3.92357,-1.88565 -1.61351,-0.81627 -3.37961,-1.6926 -4.78971,-2.5468 -1.57162,-0.81885 -6.54344,-4.15266 -7.25664,-4.8659 -4.35997,-3.45583 -8.48696,-7.62853 -12.06244,-11.93861 -0.96669,-1.16528 -1.56762,-2.00581 -2.23165,-3.08854 -2.21926,-3.61862 -4.30357,-7.76378 -5.81922,-11.32757 -0.81141,-1.9079 -1.69775,-3.51565 -1.96964,-3.57282 -0.27186,-0.0572 -1.01864,0.56728 -1.65953,1.38753 -0.6408,0.82037 -1.3235,1.66194 -1.51705,1.87024 -0.19351,0.20822 -0.74212,0.89639 -1.21909,1.5292 -0.47697,0.63283 -1.02332,1.32097 -1.21413,1.52925 -0.19081,0.20829 -1.51049,1.78358 -2.93267,3.50067 -4.3684,5.27431 -15.38891,16.01175 -19.44904,18.9494 -0.85462,0.61836 -1.73164,1.29073 -1.94903,1.49421 -0.21731,0.20344 -0.83498,0.68215 -1.3725,1.06373 -0.53753,0.38155 -1.25727,0.96693 -1.59947,1.30084 -0.34215,0.33388 -0.67851,0.60706 -0.74749,0.60706 -0.0688,0 -1.30917,0.78052 -2.75602,1.73446 -1.44689,0.95396 -2.71432,1.73445 -2.81648,1.73445 -0.10218,0 -1.00836,0.52317 -2.01373,1.16264 -6.62336,4.21283 -17.43988,8.09336 -25.70188,9.22077 -3.43421,0.46859 -11.49461,0.47822 -15.03961,0.0182 -6.4953,-0.84337 -13.04127,-2.38234 -17.97671,-4.22632 -3.2389,-1.21011 -10.28993,-4.57167 -11.79434,-5.62298 -0.57237,-0.39993 -1.30105,-0.88291 -1.61934,-1.07323 -1.39903,-0.83661 -4.65553,-3.11967 -4.97164,-3.48545 -0.19074,-0.22074 -0.67385,-0.61938 -1.0735,-0.88577 -0.68452,-0.4564 -4.30765,-3.51056 -5.13644,-4.32995 -0.20953,-0.20718 -1.33957,-1.45598 -2.51115,-2.77512 -5.5454,-6.24389 -8.36667,-10.95472 -13.07037,-21.82447 -0.49539,-1.14473 -1.04333,-2.08133 -1.21771,-2.08133 -0.17436,0 -1.52625,1.48296 -3.00414,3.29546 -1.47791,1.81251 -2.79481,3.37354 -2.92643,3.46894 -0.13169,0.0953 -0.49818,0.55181 -0.81451,1.01423 -0.6264,0.9158 -5.33208,6.05798 -8.11243,8.981 -1.18355,1.24429 -2.35271,2.40367 -3.64561,3.64018 -0.0331,0.0316 -0.0672,0.0641 -0.10196,0.0971 -1.97405,1.87468 -5.34887,4.90084 -8.32811,7.27219 -2.97924,2.37134 -6.11497,5.00472 -9.54961,6.91493 -8.5711,4.76693 -18.72905,9.79054 -27.23104,11.1426 -0.3816,0.0607 -1.70843,0.26919 -2.94859,0.46331 -2.14472,0.33581 -10.44639,0.41817 -12.66158,0.12563 z m -57.17367,-67.46764 c -0.11066,-0.27673 -0.19293,-0.19453 -0.20955,0.20961 -0.0149,0.36565 0.0668,0.57056 0.18219,0.45528 0.11531,-0.11529 0.12755,-0.4145 0.0275,-0.66489 z M 387.00905,367.6792 c 0.73393,-0.53518 1.67647,-1.16803 2.30379,-1.74591 0.76768,-0.71342 1.80611,-1.60933 2.30767,-1.99088 6.10192,-4.64256 15.04609,-13.68062 20.57905,-20.79525 0.57239,-0.73601 1.67688,-2.13388 2.45442,-3.10647 2.68018,-3.35237 8.47267,-11.29639 8.47267,-11.61973 0,-0.17823 0.12619,-0.37609 0.28036,-0.43969 0.15423,-0.0635 0.81118,-0.89616 1.45996,-1.85009 0.64879,-0.95395 1.31306,-1.89058 1.47619,-2.08135 0.62089,-0.72619 7.7071,-11.65681 10.56965,-16.30394 5.34566,-8.67836 5.63982,-9.17557 5.63982,-9.53327 0,-0.19423 0.11711,-0.35447 0.26017,-0.35608 0.14308,-8.3e-4 0.80653,-1.0553 1.47427,-2.34152 0.66777,-1.28622 1.30877,-2.41664 1.42441,-2.51203 0.21657,-0.17867 2.32333,-3.88016 4.63979,-8.15197 0.72419,-1.33554 1.97203,-3.59901 2.77296,-5.02994 0.80093,-1.43093 1.91105,-3.5383 2.4669,-4.68304 0.55588,-1.14476 1.08868,-2.15941 1.18409,-2.25481 0.41962,-0.41962 2.42824,-4.55579 2.42824,-5.00026 0,-0.27071 0.13942,-0.54422 0.30982,-0.60781 0.62409,-0.23295 8.57335,-16.70279 12.69674,-26.306 0.6963,-1.62171 1.55742,-3.57298 1.91365,-4.33615 0.8296,-1.77744 2.7233,-6.45985 4.1387,-10.23331 0.60831,-1.62173 1.32727,-3.49495 1.59765,-4.16272 0.27041,-0.66776 1.27907,-3.71175 2.24144,-6.76437 0.96237,-3.05266 1.97164,-6.25274 2.24278,-7.11129 2.28063,-7.22103 3.11354,-17.64519 1.66592,-20.84923 -0.94764,-2.0974 -2.51915,-3.85002 -4.53329,-5.05565 -1.50392,-0.90021 -1.90819,-0.9771 -5.10225,-0.97015 -3.13185,0.007 -3.65437,0.1039 -5.37682,0.99895 -4.70859,2.44683 -12.31793,10.06105 -16.49941,16.50999 -0.55668,0.85856 -1.1096,1.63905 -1.22867,1.73446 -0.46217,0.37022 -5.16681,7.57308 -5.16681,7.9104 0,0.19646 -0.1253,0.40923 -0.27845,0.47283 -0.15315,0.0635 -0.89466,1.10887 -1.64776,2.32287 -0.75308,1.21398 -1.72322,2.77498 -2.15578,3.46892 -0.43259,0.69391 -0.94382,1.63327 -1.13604,2.08748 -0.19227,0.4542 -0.63576,1.23469 -0.98557,1.73447 -0.34985,0.49975 -1.38383,2.31355 -2.29766,4.03067 -0.91392,1.71712 -1.77663,3.27812 -1.91717,3.46893 -0.47651,0.64696 -3.55656,6.5695 -5.95328,11.44742 -1.31242,2.67108 -2.56092,5.16871 -2.77438,5.5503 -0.71011,1.26916 -0.92922,1.71576 -2.16987,4.42287 -0.67757,1.4786 -1.78942,3.89821 -2.47069,5.37681 -0.68127,1.47864 -1.3821,3.00061 -1.55739,3.38221 -1.17484,2.55753 -3.86826,8.79034 -5.77123,13.35534 -1.2328,2.95726 -2.44698,5.84514 -2.69814,6.41751 -0.81065,1.84718 -1.83956,4.41748 -3.47162,8.6723 -0.87816,2.28947 -2.05827,5.34674 -2.62244,6.79393 -0.56421,1.44714 -1.0258,2.73669 -1.0258,2.86563 0,0.12892 -0.3015,0.89617 -0.67,1.70492 -0.36849,0.80878 -0.90835,2.17299 -1.19967,3.03153 -0.29126,0.85857 -1.25497,3.59035 -2.1415,6.07061 -0.88653,2.48029 -1.74065,4.97792 -1.89807,5.5503 -0.37317,1.35728 -2.69804,8.32476 -3.29881,9.88641 -0.25686,0.66778 -0.87934,2.61904 -1.38328,4.33614 -0.50393,1.71711 -1.28873,4.29278 -1.74398,5.72372 -0.45524,1.43094 -1.21602,4.00659 -1.6907,5.72373 -0.47467,1.71712 -1.17891,4.21471 -1.56492,5.55027 -1.1619,4.01974 -2.88884,11.39042 -4.34498,17.08264 -0.56235,2.19826 -1.18978,4.55011 -1.69607,6.59249 -0.4405,1.76468 -0.72131,3.28808 -0.62404,3.38538 0.17663,0.17658 1.36149,-0.93436 2.09543,-1.46952 z"
                 id="path3910"
                 style="fill:#ffffff;fill-opacity:1"
                 inkscape:label="path3910" />
            </g>
          </g>
          <g
             id="g47"
             inkscape:label="Company Logo"
             transform="matrix(0.43065503,0,0,-0.43378206,65.8902,204.79134)"
             style="display:inline;fill:#4877a6;fill-opacity:1">
            <g
               id="g49"
               style="display:inline;fill:#4877a6;fill-opacity:1" />
            <g
               id="g51"
               style="display:inline;fill:#4877a6;fill-opacity:1">
              <g
                 id="g53"
                 clip-path="url(#clipPath57)"
                 style="display:inline;fill:#4877a6;fill-opacity:1">
                <path
                   d="m 331.546,254.058 c -7.705,74.899 39.997,68.382 84.421,68.676 32.282,0.214 458.589,0.179 495.475,0.179 l -3.401,-18.802 c -48.885,0 -452.68,0 -486.621,-0.174 L 395.351,184.446 h -27.258 l 26.386,119.665 c -20.951,-0.178 -26.299,0.359 -34.202,-7.162 -6.717,-5.834 -8.388,-15.973 -1.868,-31.025 l -26.863,-11.866"
                   style="fill:#4877a6;fill-opacity:1;fill-rule:nonzero;stroke:none"
                   id="path69" />
                <path
                   d="m 494.508,265.043 c -12.048,21.916 -35.355,0.585 -42.269,-31.412 -7.509,-35.759 5.533,-54.321 32.79,-17.582 z m 53.544,-46.822 c -13.635,-36.339 -61.049,-49.19 -63.617,-15.218 -20.939,-31.197 -65.971,-25.471 -62.42,15.415 2.77,31.801 18.369,63.612 53.73,64.804 h 49.982 l -1.581,-7.517 c -6.125,-30.224 -10.271,-47.794 -14.818,-70.514 -4.347,-22.522 24.494,-5.536 31.016,13.03 h 7.708"
                   style="fill:#4877a6;fill-opacity:1;fill-rule:nonzero;stroke:none"
                   id="path71" />
                <path
                   d="m 657.231,219.014 c -17.388,-45.438 -70.925,-50.371 -62.231,1.183 2.772,13.829 5.339,27.653 7.907,41.476 4.346,22.73 -22.329,6.532 -29.632,-11.651 l -12.45,-65.576 h -28.051 l 19.955,98.776 h 27.062 l -2.965,-14.826 c 21.334,24.105 58.87,23.322 50.571,-21.131 -4.74,-24.491 -3.549,-17.386 -7.904,-41.489 -4.345,-24.295 23.712,-5.919 30.032,13.238 h 7.706"
                   style="fill:#4877a6;fill-opacity:1;fill-rule:nonzero;stroke:none"
                   id="path73" />
                <path
                   d="m 706.945,219.014 c -15.803,-42.269 -74.078,-53.527 -63.013,0.795 l 10.464,51.357 h -11.848 l 4.936,12.056 h 9.481 l 5.34,25.684 28.046,5.519 -6.122,-31.203 h 16.005 l -5.728,-12.056 h -12.454 l -13.234,-65.587 c -4.536,-23.107 23.512,-5.924 30.229,13.435 h 7.898"
                   style="fill:#4877a6;fill-opacity:1;fill-rule:nonzero;stroke:none"
                   id="path75" />
                <path
                   d="m 771.104,265.043 c -12.046,21.916 -35.362,0.585 -42.272,-31.412 -7.506,-35.759 5.535,-54.321 32.792,-17.582 z m 53.546,-46.822 c -13.638,-36.339 -61.052,-49.19 -63.623,-15.218 -20.929,-31.197 -65.973,-25.471 -62.418,15.415 2.765,31.801 18.373,63.612 53.732,64.804 h 49.977 l -1.574,-7.517 c -6.134,-30.224 -10.274,-47.794 -14.82,-70.514 -4.349,-22.522 24.491,-5.536 31.013,13.03 h 7.713"
                   style="fill:#4877a6;fill-opacity:1;fill-rule:nonzero;stroke:none"
                   id="path77" />
                <path
                   d="m 872.585,217.637 c -14.82,-40.51 -70.526,-51.369 -60.051,1.377 l 20.739,103.717 h 26.668 c -6.723,-33.59 -19.551,-95.03 -24.096,-117.737 -4.35,-22.522 23.1,-5.739 29.234,12.643 h 7.506"
                   style="fill:#4877a6;fill-opacity:1;fill-rule:nonzero;stroke:none"
                   id="path79" />
                <path
                   d="m 924.514,217.637 c -14.821,-40.51 -70.527,-51.369 -60.055,1.377 l 20.738,103.717 h 26.674 c -6.723,-33.59 -19.557,-95.03 -24.109,-117.737 -4.343,-22.522 23.119,-5.739 29.235,12.643 h 7.517"
                   style="fill:#4877a6;fill-opacity:1;fill-rule:nonzero;stroke:none"
                   id="path81" />
                <path
                   d="m 974.267,235.207 c -6.319,1.182 -12.249,3.956 -18.966,9.093 l 10.267,14.032 c 2.565,-2.38 5.536,-4.159 8.496,-5.345 -3.163,14.635 -15.602,27.647 -26.859,12.056 -9.882,-14.228 -18.776,-57.482 -1.195,-67.37 9.487,-5.529 23.121,4.148 28.257,36.752 0,0.186 0,0.591 0,0.782 z m 47.213,19.95 c -7.91,-7.099 -15.81,-12.641 -23.51,-16.191 -5.734,-45.039 -42.473,-62.425 -65.788,-53.533 -18.37,6.711 -25.088,23.697 -23.108,41.882 2.167,19.157 13.627,39.119 32.003,49.584 18.369,10.656 45.831,11.644 55.313,-11.271 1.58,-3.746 2.565,-8.483 2.565,-13.824 7.895,1.987 15.615,5.735 21.925,10.078 l 0.6,-6.725"
                   style="fill:#4877a6;fill-opacity:1;fill-rule:nonzero;stroke:none"
                   id="path83" />
                <path
                   d="m 1128.89,219.014 c -17.39,-45.438 -70.92,-50.371 -62.23,1.183 2.77,13.829 5.34,27.653 7.91,41.476 4.34,22.73 -22.32,6.532 -29.63,-11.651 l -12.45,-65.576 h -28.05 l 19.95,98.776 h 27.06 l -2.96,-14.826 c 21.33,24.105 58.87,23.322 50.57,-21.131 -4.75,-24.491 -3.55,-17.386 -7.9,-41.489 -4.35,-24.295 23.71,-5.919 30.02,13.238 h 7.71"
                   style="fill:#4877a6;fill-opacity:1;fill-rule:nonzero;stroke:none"
                   id="path85" />
                <path
                   d="m 369.032,168.108 h 9.273 v -56.336 h 29.167 v -8.441 h -38.44 v 64.777"
                   style="fill:#4877a6;fill-opacity:1;fill-rule:nonzero;stroke:none"
                   id="path87" />
                <path
                   d="m 464.138,130.782 -10.45,23.463 -9.692,-23.463 z m -13.625,37.698 h 6.518 l 29.045,-65.149 h -9.492 l -8.633,19.199 h -27.636 l -8.095,-19.199 h -9.531 l 27.824,65.149"
                   style="fill:#4877a6;fill-opacity:1;fill-rule:nonzero;stroke:none"
                   id="path89" />
                <path
                   d="m 523.458,130.472 -7.047,4.281 c -4.421,2.702 -7.566,5.357 -9.436,7.969 -1.871,2.614 -2.805,5.619 -2.805,9.019 0,5.101 1.768,9.243 5.309,12.426 3.54,3.187 8.138,4.777 13.795,4.777 5.41,0 10.37,-1.519 14.884,-4.555 v -10.527 c -4.667,4.492 -9.692,6.737 -15.07,6.737 -3.031,0 -5.517,-0.703 -7.465,-2.103 -1.948,-1.402 -2.922,-3.195 -2.922,-5.381 0,-1.939 0.717,-3.757 2.152,-5.451 1.435,-1.694 3.742,-3.471 6.92,-5.333 l 7.084,-4.189 c 7.9,-4.721 11.851,-10.729 11.851,-18.025 0,-5.193 -1.739,-9.412 -5.216,-12.658 -3.478,-3.245 -8,-4.868 -13.562,-4.868 -6.4,0 -12.227,1.966 -17.482,5.899 v 11.777 c 5.008,-6.344 10.804,-9.517 17.388,-9.517 2.905,0 5.325,0.811 7.257,2.426 1.931,1.618 2.898,3.644 2.898,6.076 0,3.944 -2.845,7.684 -8.533,11.22"
                   style="fill:#4877a6;fill-opacity:1;fill-rule:nonzero;stroke:none"
                   id="path91" />
                <path
                   d="m 565.154,168.108 h 36.723 v -8.253 h -27.45 v -19.752 h 26.523 v -8.3 h -26.523 v -20.124 h 28.331 v -8.252 h -37.604 v 64.681"
                   style="fill:#4877a6;fill-opacity:1;fill-rule:nonzero;stroke:none"
                   id="path93" />
                <path
                   d="m 639.215,160.229 h -2.781 v -20.452 h 3.523 c 4.699,0 7.923,0.405 9.666,1.207 1.748,0.804 3.108,2.016 4.081,3.639 0.975,1.624 1.461,3.471 1.461,5.541 0,2.041 -0.541,3.887 -1.624,5.543 -1.083,1.654 -2.601,2.819 -4.566,3.5 -1.964,0.68 -5.215,1.022 -9.76,1.022 z M 627.16,103.331 v 64.777 h 16.226 c 6.556,0 11.756,-1.622 15.605,-4.867 3.849,-3.246 5.773,-7.636 5.773,-13.169 0,-3.771 -0.943,-7.032 -2.828,-9.784 -1.886,-2.751 -4.591,-4.808 -8.116,-6.168 2.073,-1.358 4.1,-3.214 6.076,-5.563 1.977,-2.35 4.759,-6.448 8.343,-12.287 2.257,-3.681 4.069,-6.446 5.428,-8.3 l 3.432,-4.639 h -11.038 l -2.823,4.27 c -0.092,0.155 -0.277,0.415 -0.555,0.788 l -1.809,2.551 -2.87,4.731 -3.103,5.058 c -1.913,2.66 -3.666,4.779 -5.263,6.352 -1.591,1.572 -3.033,2.707 -4.317,3.399 -1.283,0.697 -3.441,1.043 -6.474,1.043 h -2.413 v -28.192 h -9.274"
                   style="fill:#4877a6;fill-opacity:1;fill-rule:nonzero;stroke:none"
                   id="path95" />
                <path
                   d="m 794.938,118.356 v -10.203 c -6.8,-3.708 -14.651,-5.562 -23.552,-5.562 -7.235,0 -13.371,1.451 -18.41,4.358 -5.041,2.905 -9.027,6.908 -11.962,12.01 -2.938,5.099 -4.405,10.618 -4.405,16.554 0,9.427 3.361,17.356 10.084,23.787 6.723,6.429 15.014,9.644 24.876,9.644 6.799,0 14.363,-1.777 22.676,-5.332 v -9.97 c -7.574,4.327 -14.979,6.492 -22.212,6.492 -7.418,0 -13.579,-2.34 -18.477,-7.025 -4.903,-4.683 -7.351,-10.548 -7.351,-17.596 0,-7.111 2.41,-12.951 7.233,-17.528 4.825,-4.575 10.99,-6.862 18.5,-6.862 7.852,0 15.52,2.41 23,7.233"
                   style="fill:#4877a6;fill-opacity:1;fill-rule:nonzero;stroke:none"
                   id="path97" />
                <path
                   d="m 820.592,168.108 h 9.273 v -56.336 h 29.166 v -8.441 h -38.439 v 64.777"
                   style="fill:#4877a6;fill-opacity:1;fill-rule:nonzero;stroke:none"
                   id="path99" />
                <path
                   d="m 881.482,103.331 h 9.276 v 64.777 h -9.276 z"
                   style="fill:#4877a6;fill-opacity:1;fill-rule:nonzero;stroke:none"
                   id="path101" />
                <path
                   d="m 970.845,168.108 h 8.811 v -64.777 h -7.973 l -43.312,49.891 v -49.891 h -8.719 v 64.777 h 7.511 l 43.682,-50.312 v 50.312"
                   style="fill:#4877a6;fill-opacity:1;fill-rule:nonzero;stroke:none"
                   id="path103" />
                <path
                   d="m 1007.86,103.331 h 9.27 v 64.777 h -9.27 z"
                   style="fill:#4877a6;fill-opacity:1;fill-rule:nonzero;stroke:none"
                   id="path105" />
                <path
                   d="m 1101.58,118.356 v -10.203 c -6.8,-3.708 -14.65,-5.562 -23.56,-5.562 -7.23,0 -13.37,1.451 -18.4,4.358 -5.04,2.905 -9.03,6.908 -11.97,12.01 -2.94,5.099 -4.4,10.618 -4.4,16.554 0,9.427 3.36,17.356 10.08,23.787 6.73,6.429 15.02,9.644 24.88,9.644 6.8,0 14.36,-1.777 22.67,-5.332 v -9.97 c -7.57,4.327 -14.97,6.492 -22.21,6.492 -7.42,0 -13.58,-2.34 -18.47,-7.025 -4.91,-4.683 -7.36,-10.548 -7.36,-17.596 0,-7.111 2.42,-12.951 7.24,-17.528 4.82,-4.575 10.99,-6.862 18.5,-6.862 7.85,0 15.52,2.41 23,7.233"
                   style="display:inline;fill:#4877a6;fill-opacity:1;fill-rule:nonzero;stroke:none"
                   id="path107" />
              </g>
            </g>
          </g>
        </g>
      </g>
    </g>
  </g>
  <sodipodi:namedview
     id="namedview7"
     pagecolor="#ffffff"
     bordercolor="#666666"
     borderopacity="1.0"
     inkscape:pageshadow="2"
     inkscape:pageopacity="0.0"
     inkscape:pagecheckerboard="0"
     inkscape:document-units="in"
     showgrid="false"
     fit-margin-top="0"
     fit-margin-left="0"
     fit-margin-right="0"
     fit-margin-bottom="0"
     inkscape:zoom="0.99039524"
     inkscape:cx="209.51232"
     inkscape:cy="89.358265"
     inkscape:window-width="1440"
     inkscape:window-height="847"
     inkscape:window-x="1920"
     inkscape:window-y="513"
     inkscape:window-maximized="1"
     inkscape:current-layer="svg5"
     showguides="true"
     inkscape:guide-bbox="true"
     units="in" />
  <defs
     id="defs2">
    <clipPath
       clipPathUnits="userSpaceOnUse"
       id="clipPath57">
      <path
         d="M 0,0 H 1152 V 432 H 0 Z"
         id="path55" />
    </clipPath>
    <style
       id="style12692">.cls-1{fill:#fff;}.cls-2{fill:#4267b2;}.cls-3{fill:#32363b;}</style>
  </defs>
</svg>
